<svg width="19" height="19" viewBox="0 0 19 19" fill="none" xmlns="http://www.w3.org/2000/svg">
<g clip-path="url(#clip0_69_440)">
<path d="M9.06647 11.0982C5.6926 11.4032 3.12218 14.254 3.16697 17.6413V17.8131C3.16697 18.469 3.69864 19.0006 4.35447 19.0006C5.01031 19.0006 5.54197 18.469 5.54197 17.8131V17.5938C5.50627 15.514 7.04112 13.7405 9.10447 13.4772C11.2825 13.2612 13.2233 14.8518 13.4393 17.0298C13.4521 17.1586 13.4585 17.2879 13.4586 17.4173V17.8131C13.4586 18.469 13.9903 19.0006 14.6461 19.0006C15.302 19.0006 15.8336 18.469 15.8336 17.8131V17.4173C15.8298 13.9155 12.9879 11.0799 9.48618 11.0838C9.34617 11.084 9.20619 11.0888 9.06647 11.0982Z" fill="white"/>
<path d="M9.50034 9.5C12.1237 9.5 14.2503 7.37334 14.2503 4.75C14.2503 2.12666 12.1237 0 9.50034 0C6.87701 0 4.75034 2.12666 4.75034 4.75C4.75294 7.37226 6.87808 9.49736 9.50034 9.5ZM9.50034 2.375C10.812 2.375 11.8753 3.43833 11.8753 4.75C11.8753 6.06167 10.812 7.125 9.50034 7.125C8.18868 7.125 7.12534 6.06167 7.12534 4.75C7.12534 3.43833 8.18868 2.375 9.50034 2.375Z" fill="white"/>
</g>
<defs>
<clipPath id="clip0_69_440">
<rect width="19" height="19" fill="white"/>
</clipPath>
</defs>
</svg>
