<svg width="21" height="19" viewBox="0 0 21 19" fill="none" xmlns="http://www.w3.org/2000/svg">
<g clip-path="url(#clip0_69_317)">
<path d="M9.3625 2.0414C9.11647 1.57652 8.72664 1.18346 8.23857 0.908144C7.7505 0.632829 7.18435 0.486631 6.60625 0.486631C6.02816 0.486631 5.462 0.632829 4.97393 0.908144C4.48586 1.18346 4.09604 1.57652 3.85 2.0414H1.3125C0.964404 2.0414 0.630564 2.16429 0.384422 2.38302C0.138281 2.60176 0 2.89843 0 3.20777H0C0 3.51712 0.138281 3.81379 0.384422 4.03252C0.630564 4.25126 0.964404 4.37415 1.3125 4.37415H3.84563C4.09166 4.83903 4.48149 5.23209 4.96956 5.50741C5.45763 5.78272 6.02378 5.92892 6.60188 5.92892C7.17997 5.92892 7.74613 5.78272 8.2342 5.50741C8.72226 5.23209 9.11209 4.83903 9.35813 4.37415H19.6875C20.0356 4.37415 20.3694 4.25126 20.6156 4.03252C20.8617 3.81379 21 3.51712 21 3.20777C21 2.89843 20.8617 2.60176 20.6156 2.38302C20.3694 2.16429 20.0356 2.0414 19.6875 2.0414H9.3625Z" fill="#EFECEC"/>
<path d="M14.3981 6.60897C13.8201 6.60988 13.2542 6.75649 12.7662 7.03177C12.2781 7.30704 11.888 7.6997 11.641 8.16413H1.3125C0.964404 8.16413 0.630564 8.28702 0.384422 8.50576C0.138281 8.72449 0 9.02117 0 9.33051H0C0 9.63985 0.138281 9.93652 0.384422 10.1553C0.630564 10.374 0.964404 10.4969 1.3125 10.4969H11.6375C11.8835 10.9618 12.2734 11.3548 12.7614 11.6301C13.2495 11.9055 13.8157 12.0517 14.3938 12.0517C14.9718 12.0517 15.538 11.9055 16.0261 11.6301C16.5141 11.3548 16.904 10.9618 17.15 10.4969H19.6875C20.0356 10.4969 20.3694 10.374 20.6156 10.1553C20.8617 9.93652 21 9.63985 21 9.33051C21 9.02117 20.8617 8.72449 20.6156 8.50576C20.3694 8.28702 20.0356 8.16413 19.6875 8.16413H17.1544C16.9075 7.69982 16.5174 7.30724 16.0296 7.03198C15.5417 6.75671 14.976 6.61003 14.3981 6.60897Z" fill="#EFECEC"/>
<path d="M6.60188 12.7324C6.02399 12.7335 5.45828 12.8802 4.97042 13.1554C4.48255 13.4307 4.09254 13.8233 3.84563 14.2876H1.3125C0.964404 14.2876 0.630564 14.4105 0.384422 14.6292C0.138281 14.848 0 15.1446 0 15.454H0C0 15.7633 0.138281 16.06 0.384422 16.2787C0.630564 16.4975 0.964404 16.6203 1.3125 16.6203H3.84563C4.09166 17.0852 4.48149 17.4783 4.96956 17.7536C5.45763 18.0289 6.02378 18.1751 6.60188 18.1751C7.17997 18.1751 7.74613 18.0289 8.2342 17.7536C8.72226 17.4783 9.11209 17.0852 9.35813 16.6203H19.6875C20.0356 16.6203 20.3694 16.4975 20.6156 16.2787C20.8617 16.06 21 15.7633 21 15.454C21 15.1446 20.8617 14.848 20.6156 14.6292C20.3694 14.4105 20.0356 14.2876 19.6875 14.2876H9.3625C9.11527 13.8227 8.72457 13.4297 8.23586 13.1544C7.74715 12.8791 7.18051 12.7328 6.60188 12.7324Z" fill="#EFECEC"/>
</g>
<defs>
<clipPath id="clip0_69_317">
<rect width="20.4338" height="18.1588" fill="white" transform="scale(1.02771)"/>
</clipPath>
</defs>
</svg>
