<svg width="19" height="19" viewBox="0 0 19 19" fill="none" xmlns="http://www.w3.org/2000/svg">
<g clip-path="url(#clip0_69_439)">
<path d="M18.1883 6.88367L12.5786 1.27393C10.8769 -0.42334 8.12264 -0.42334 6.42099 1.27393L0.811253 6.88367C0.289941 7.40219 -0.00225737 8.10772 -0.000216354 8.84304V17.0589C0.00152778 18.1313 0.870924 19 1.94335 19.0009H17.0562C18.1286 19 18.998 18.1313 18.9997 17.0589V8.84304C19.0018 8.10772 18.7096 7.40219 18.1883 6.88367ZM16.6248 16.6259H12.6664V14.1068C12.6664 12.4375 11.3132 11.0842 9.64386 11.0842H9.35571C7.68638 11.0842 6.33312 12.4375 6.33312 14.1068V16.6259H2.37478V8.84304C2.37504 8.73806 2.41653 8.63741 2.49037 8.56279L8.10011 2.95305C8.87291 2.18003 10.1261 2.17988 10.8991 2.95268C10.8992 2.95279 10.8993 2.95294 10.8995 2.95305L16.5092 8.56279C16.583 8.63741 16.6245 8.73806 16.6248 8.84304V16.6259H16.6248Z" fill="white"/>
</g>
<defs>
<clipPath id="clip0_69_439">
<rect width="19" height="19" fill="white"/>
</clipPath>
</defs>
</svg>
