<svg width="19" height="19" viewBox="0 0 19 19" fill="none" xmlns="http://www.w3.org/2000/svg">
<g clip-path="url(#clip0_69_362)">
<path d="M13.6562 1.46514C12.8442 1.473 12.0453 1.67093 11.3236 2.04307C10.6018 2.41522 9.97729 2.95124 9.49997 3.60818C9.02265 2.95124 8.39809 2.41522 7.67635 2.04307C6.9546 1.67093 6.15572 1.473 5.34372 1.46514C3.87262 1.52389 2.48463 2.16274 1.48325 3.24201C0.481865 4.32128 -0.0514314 5.75314 -3.20867e-05 7.22452C-3.20867e-05 10.8282 3.70022 14.686 6.8083 17.2882C7.56302 17.9228 8.51746 18.2707 9.50353 18.2707C10.4896 18.2707 11.444 17.9228 12.1988 17.2882C15.3037 14.686 19.0071 10.8282 19.0071 7.22452C19.0585 5.75196 18.5242 4.31905 17.5213 3.23958C16.5184 2.16011 15.1286 1.52205 13.6562 1.46514ZM10.6693 15.4681C10.3418 15.7438 9.92759 15.895 9.49957 15.895C9.07156 15.895 8.6573 15.7438 8.32989 15.4681C4.54572 12.2951 2.37497 9.29077 2.37497 7.22452C2.32449 6.38315 2.60794 5.55582 3.16377 4.92218C3.7196 4.28853 4.50294 3.89971 5.34372 3.84014C6.18449 3.89971 6.96784 4.28853 7.52367 4.92218C8.0795 5.55582 8.36294 6.38315 8.31247 7.22452C8.31247 7.53946 8.43758 7.84151 8.66028 8.06421C8.88298 8.2869 9.18502 8.41202 9.49997 8.41202C9.81491 8.41202 10.117 8.2869 10.3397 8.06421C10.5624 7.84151 10.6875 7.53946 10.6875 7.22452C10.637 6.38315 10.9204 5.55582 11.4763 4.92218C12.0321 4.28853 12.8154 3.89971 13.6562 3.84014C14.497 3.89971 15.2803 4.28853 15.8362 4.92218C16.392 5.55582 16.6754 6.38315 16.625 7.22452C16.625 9.29077 14.4542 12.2951 10.6693 15.4681Z" fill="#4B4444"/>
</g>
<defs>
<clipPath id="clip0_69_362">
<rect width="18.8442" height="18.8442" fill="white" transform="scale(1.00827)"/>
</clipPath>
</defs>
</svg>
