<svg width="200" height="208" viewBox="0 0 200 208" fill="none" xmlns="http://www.w3.org/2000/svg">
<path opacity="0.2" d="M200 103.678C200 160.938 155.228 207.356 100 207.356C44.7715 207.356 0 160.938 0 103.678C0 46.4183 44.7715 0 100 0C155.228 0 200 46.4183 200 103.678ZM35.4282 103.678C35.4282 140.652 64.338 170.625 100 170.625C135.662 170.625 164.572 140.652 164.572 103.678C164.572 66.7044 135.662 36.7313 100 36.7313C64.338 36.7313 35.4282 66.7044 35.4282 103.678Z" fill="#FF6D6D"/>
<path opacity="0.7" d="M144.828 103.678C144.828 129.198 124.758 149.885 99.9999 149.885C75.2424 149.885 55.1724 129.198 55.1724 103.678C55.1724 78.1589 75.2424 57.4713 99.9999 57.4713C124.758 57.4713 144.828 78.1589 144.828 103.678ZM77.7276 103.678C77.7276 116.357 87.6993 126.636 99.9999 126.636C112.301 126.636 122.272 116.357 122.272 103.678C122.272 90.999 112.301 80.7205 99.9999 80.7205C87.6993 80.7205 77.7276 90.999 77.7276 103.678Z" fill="#FF6D6D"/>
<path opacity="0.5" d="M165.036 103.541C165.036 140.818 135.889 171.037 99.9343 171.037C63.9796 171.037 34.8325 140.818 34.8325 103.541C34.8325 66.2638 63.9796 36.0446 99.9343 36.0446C135.889 36.0446 165.036 66.2638 165.036 103.541ZM57.8969 103.541C57.8969 127.612 76.7177 147.125 99.9343 147.125C123.151 147.125 141.972 127.612 141.972 103.541C141.972 79.4705 123.151 59.9574 99.9343 59.9574C76.7177 59.9574 57.8969 79.4705 57.8969 103.541Z" fill="#FF6D6D"/>
</svg>
