<svg width="23" height="23" viewBox="0 0 23 23" fill="none" xmlns="http://www.w3.org/2000/svg">
<mask id="mask0_119_2063" style="mask-type:alpha" maskUnits="userSpaceOnUse" x="-4" y="-4" width="31" height="31">
<rect x="-3.83334" y="-3.83346" width="30.6667" height="30.6667" fill="#D9D9D9"/>
</mask>
<g mask="url(#mask0_119_2063)">
<path d="M10.2222 17.8889H12.7778V12.7778H17.8889V10.2222H12.7778V5.11111H10.2222V10.2222H5.11111V12.7778H10.2222V17.8889ZM2.55556 23C1.85278 23 1.25116 22.7498 0.750695 22.2493C0.250232 21.7488 0 21.1472 0 20.4444V2.55556C0 1.85278 0.250232 1.25116 0.750695 0.750695C1.25116 0.250232 1.85278 0 2.55556 0H20.4444C21.1472 0 21.7488 0.250232 22.2493 0.750695C22.7498 1.25116 23 1.85278 23 2.55556V20.4444C23 21.1472 22.7498 21.7488 22.2493 22.2493C21.7488 22.7498 21.1472 23 20.4444 23H2.55556Z" fill="#DB1818"/>
</g>
</svg>
